<svg width="44" height="44" fill="none" xmlns="http://www.w3.org/2000/svg"><path d="M40.086 4.243a3.184 3.184 0 0 0-2.43-1.123h-3.074v-.962A2.16 2.16 0 0 0 32.424 0H11.576a2.16 2.16 0 0 0-2.158 2.158v.962H6.343c-.936 0-1.822.41-2.429 1.123-.6.706-.86 1.634-.712 2.546.808 4.967 3.934 9.355 8.37 11.762.406.975.865 1.898 1.376 2.758 1.633 2.748 3.663 4.647 5.898 5.565.226 2.29-1.297 4.46-3.592 4.976l-.013.004a1.018 1.018 0 0 0-.781.99v4.671h-1.89a3.058 3.058 0 0 0-3.055 3.055v2.412c0 .562.456 1.018 1.018 1.018h23.03c.563 0 1.02-.456 1.02-1.018V40.57a3.059 3.059 0 0 0-3.056-3.055h-1.89v-4.671c0-.482-.334-.884-.783-.99l-.013-.004a4.647 4.647 0 0 1-3.588-5.018c2.196-.933 4.19-2.815 5.8-5.523.51-.86.97-1.783 1.375-2.758 4.436-2.407 7.562-6.795 8.37-11.762a3.145 3.145 0 0 0-.712-2.546ZM5.212 6.462a1.097 1.097 0 0 1 .254-.9c.22-.258.54-.406.877-.406h3.075V7.03c0 2.938.375 5.783 1.086 8.386-2.793-2.207-4.716-5.413-5.292-8.954Zm26.315 33.09a1.02 1.02 0 0 1 1.018 1.019v1.393H11.552V40.57a1.02 1.02 0 0 1 1.018-1.019h18.957Zm-3.926-5.69v3.654H16.497v-3.654H27.6Zm-8.434-2.037c.252-.277.482-.577.688-.898a6.625 6.625 0 0 0 1.05-3.496 8.101 8.101 0 0 0 2.285-.013 6.704 6.704 0 0 0 1.75 4.407h-5.773ZM32.545 7.03c0 5.017-1.152 9.719-3.244 13.239-1.993 3.354-4.586 5.2-7.3 5.2-2.716 0-5.309-1.846-7.302-5.2-2.092-3.52-3.244-8.222-3.244-13.239V2.158c0-.067.054-.121.121-.121h20.848c.067 0 .121.054.121.121V7.03Zm6.243-.568c-.576 3.541-2.499 6.747-5.291 8.954.71-2.603 1.085-5.448 1.085-8.386V5.156h3.074c.339 0 .659.148.878.406.217.255.306.574.254.9Z" fill="#fff"/><path d="M28.182 10.455a1.019 1.019 0 0 0-.822-.693l-3.073-.447-1.374-2.784a1.018 1.018 0 0 0-1.826 0l-1.375 2.784-3.072.447a1.018 1.018 0 0 0-.565 1.737l2.224 2.167-.525 3.061A1.018 1.018 0 0 0 19.25 17.8L22 16.357l2.748 1.444a1.018 1.018 0 0 0 1.478-1.073l-.525-3.06 2.223-2.168c.278-.27.378-.675.258-1.044Zm-4.286 2.127c-.24.234-.35.57-.293.901l.267 1.555-1.396-.734a1.017 1.017 0 0 0-.948 0l-1.396.734.266-1.555a1.018 1.018 0 0 0-.292-.901l-1.13-1.101 1.561-.227c.332-.048.619-.257.767-.557L22 9.283l.698 1.414c.148.3.435.509.767.557l1.56.227-1.129 1.1Z" fill="#fff"/></svg>