<svg width="24" height="24" fill="none" xmlns="http://www.w3.org/2000/svg"><g clip-path="url(#a)"><path d="M21.47 3.494H2.07A2.072 2.072 0 0 0 0 5.563v12.413c0 1.143.931 2.069 2.069 2.069H21.47a2.072 2.072 0 0 0 2.07-2.069V5.563a2.073 2.073 0 0 0-2.07-2.069Zm-.317 1.38c-.67.67-8.526 8.553-8.849 8.877-.27.27-.8.27-1.069 0L2.387 4.873h18.765ZM1.378 17.722V5.817l5.934 5.953-5.934 5.953Zm1.008.943 5.9-5.92 1.971 1.979c.808.81 2.215.81 3.023 0l1.971-1.979 5.9 5.92H2.387Zm19.773-.943-5.934-5.953 5.934-5.953v11.906Z" fill="#BDBDBD"/></g><defs><clipPath id="a"><path fill="#fff" d="M0 0h23.539v23.539H0z"/></clipPath></defs></svg>