<svg width="44" height="44" fill="none" xmlns="http://www.w3.org/2000/svg"><g clip-path="url(#a)" fill="#fff"><path d="M22 17.79c4.123 0 7.477-3.355 7.477-7.477 0-4.123-3.354-7.477-7.477-7.477s-7.477 3.354-7.477 7.476c0 4.123 3.354 7.477 7.477 7.477Zm0-12.376a4.904 4.904 0 0 1 4.898 4.899A4.904 4.904 0 0 1 22 15.21a4.904 4.904 0 0 1-4.898-4.899A4.904 4.904 0 0 1 22 5.415ZM37.125 17.79a4.732 4.732 0 0 0 4.727-4.727 4.732 4.732 0 0 0-4.727-4.727 4.732 4.732 0 0 0-4.727 4.726 4.732 4.732 0 0 0 4.727 4.727Zm0-6.876a2.15 2.15 0 0 1 2.148 2.149 2.15 2.15 0 0 1-2.148 2.148 2.15 2.15 0 0 1-2.148-2.149 2.15 2.15 0 0 1 2.148-2.148ZM38.165 20.71H36.17a5.844 5.844 0 0 0-5.302 3.383 10.375 10.375 0 0 0-7.668-3.382H20.8a10.375 10.375 0 0 0-7.668 3.382 5.844 5.844 0 0 0-5.302-3.382H5.835C2.618 20.71 0 23.313 0 26.51v9.385a2.526 2.526 0 0 0 2.528 2.518h7.882a3.013 3.013 0 0 0 2.998 2.75h17.184a3.013 3.013 0 0 0 2.998-2.75h7.792A2.615 2.615 0 0 0 44 35.807V26.51c0-3.198-2.618-5.8-5.835-5.8Zm-35.587 5.8c0-1.776 1.461-3.22 3.257-3.22H7.83c1.796 0 3.257 1.444 3.257 3.22v.883c-.867 2.258-.688 3.61-.688 8.443h-7.82V26.51Zm28.445 11.644a.432.432 0 0 1-.431.432H13.408a.432.432 0 0 1-.431-.432v-7.043c0-4.313 3.509-7.822 7.822-7.822H23.2c4.313 0 7.822 3.51 7.822 7.822v7.043Zm10.399-2.347c0 .044.48.029-7.82.029 0-4.868.178-6.19-.688-8.442v-.883c0-1.777 1.461-3.222 3.257-3.222h1.994c1.796 0 3.257 1.445 3.257 3.222v9.296ZM6.875 17.79a4.732 4.732 0 0 0 4.727-4.727 4.732 4.732 0 0 0-4.727-4.727 4.732 4.732 0 0 0-4.727 4.726 4.732 4.732 0 0 0 4.727 4.727Zm0-6.876a2.15 2.15 0 0 1 2.148 2.149 2.15 2.15 0 0 1-2.148 2.148 2.15 2.15 0 0 1-2.148-2.149 2.15 2.15 0 0 1 2.148-2.148Z"/></g><defs><clipPath id="a"><path fill="#fff" d="M0 0h44v44H0z"/></clipPath></defs></svg>