<svg width="24" height="25" fill="none" xmlns="http://www.w3.org/2000/svg"><g clip-path="url(#a)" fill="#BDBDBD"><path d="M11.197 23.907a.69.69 0 0 0 1.147 0c1.633-2.448 4.036-5.471 5.711-8.546 1.34-2.459 1.991-4.556 1.991-6.41 0-4.564-3.712-8.276-8.275-8.276-4.564 0-8.276 3.712-8.276 8.276 0 1.854.651 3.951 1.99 6.41 1.675 3.072 4.083 6.103 5.712 8.546Zm.574-21.853a6.904 6.904 0 0 1 6.896 6.897c0 1.618-.596 3.499-1.823 5.75-1.444 2.65-3.504 5.339-5.073 7.6-1.57-2.26-3.63-4.95-5.074-7.6-1.226-2.251-1.823-4.132-1.823-5.75a6.904 6.904 0 0 1 6.897-6.897Z"/><path d="M11.77 13.088a4.142 4.142 0 0 0 4.138-4.138 4.142 4.142 0 0 0-4.137-4.137A4.142 4.142 0 0 0 7.633 8.95a4.142 4.142 0 0 0 4.138 4.138Zm0-6.896a2.762 2.762 0 0 1 2.76 2.758 2.762 2.762 0 0 1-2.758 2.759A2.762 2.762 0 0 1 9.011 8.95a2.762 2.762 0 0 1 2.758-2.758Z"/></g><defs><clipPath id="a"><path fill="#fff" transform="translate(0 .675)" d="M0 0h23.539v23.539H0z"/></clipPath></defs></svg>