<svg width="22" height="22" fill="none" xmlns="http://www.w3.org/2000/svg"><path d="M19.662 14.26c-1.297 0-2.57-.203-3.777-.602-.602-.205-1.287-.046-1.68.354l-2.381 1.798c-2.763-1.475-4.465-3.176-5.92-5.917l1.746-2.32a1.712 1.712 0 0 0 .421-1.735 12.047 12.047 0 0 1-.604-3.784c0-.937-.762-1.7-1.7-1.7h-3.89c-.937 0-1.7.763-1.7 1.7 0 10.744 8.741 19.485 19.485 19.485.938 0 1.7-.763 1.7-1.7v-3.88c0-.937-.762-1.7-1.7-1.7Zm.523 5.58a.523.523 0 0 1-.523.522c-10.095 0-18.308-8.213-18.308-18.308 0-.289.234-.523.523-.523h3.89c.29 0 .524.234.524.523 0 1.423.223 2.82.66 4.144.061.195.012.398-.186.603l-2.023 2.68a.589.589 0 0 0-.055.62c1.651 3.246 3.657 5.252 6.926 6.927a.586.586 0 0 0 .623-.054l2.74-2.076a.52.52 0 0 1 .534-.125c1.332.44 2.73.664 4.152.664.289 0 .523.234.523.523v3.88Z" fill="#BDBDBD"/></svg>