<svg width="42" height="44" fill="none" xmlns="http://www.w3.org/2000/svg"><path d="M13.372 7.12v23.422a7.675 7.675 0 0 0-5.125-1.956c-4.25 0-7.707 3.457-7.707 7.707S3.997 44 8.247 44c4.244 0 7.698-3.449 7.707-7.691V17.486l22.924-5.811v12.65a7.675 7.675 0 0 0-5.124-1.956c-4.25 0-7.707 3.457-7.707 7.707s3.457 7.706 7.707 7.706 7.707-3.457 7.707-7.706V0L13.37 7.12ZM8.247 41.417a5.13 5.13 0 0 1-5.124-5.124 5.13 5.13 0 0 1 5.124-5.125 5.13 5.13 0 0 1 5.125 5.125 5.13 5.13 0 0 1-5.125 5.124Zm7.707-26.595V9.13l22.924-5.811V9.01l-22.924 5.811Zm17.8 20.378a5.13 5.13 0 0 1-5.125-5.125 5.13 5.13 0 0 1 5.125-5.124 5.13 5.13 0 0 1 5.124 5.125 5.13 5.13 0 0 1-5.124 5.124Z" fill="#fff"/></svg>