<svg width="44" height="44" fill="none" xmlns="http://www.w3.org/2000/svg"><g clip-path="url(#a)" fill="#fff"><path d="M43.976 1.239A1.289 1.289 0 0 0 42.76.023c-.017 0-.43-.023-1.141-.023-1.963 0-5.922.164-10.38 1.267C25.602 2.66 21.04 5.07 17.68 8.43c-1.463 1.463-2.744 3.149-3.838 5.048l-1.468-1.467a1.288 1.288 0 0 0-1.463-.254L.736 16.578a1.29 1.29 0 0 0-.736 1.209l.536 15.529a1.289 1.289 0 0 0 2.199.867l8.727-8.727 2.629 2.628-8.728 8.727a1.29 1.29 0 0 0 1.824 1.823l8.727-8.727 2.628 2.628-8.727 8.728a1.289 1.289 0 0 0 .867 2.2l15.529.535h.045a1.29 1.29 0 0 0 1.165-.736l4.82-10.174a1.29 1.29 0 0 0-.254-1.464l-1.469-1.468c1.9-1.095 3.587-2.375 5.049-3.838 2.138-2.138 3.91-4.797 5.268-7.903 1.073-2.457 1.892-5.2 2.432-8.151.916-5.008.717-8.863.708-9.025ZM2.606 18.544l8.588-4.067 1.411 1.411c-.976 2.145-1.751 4.515-2.32 7.1L3.01 30.262l-.404-11.718Zm26.916 14.261-4.068 8.587-11.717-.404 7.273-7.274c2.586-.569 4.956-1.344 7.1-2.32l1.412 1.411ZM40.72 9.862c-.79 4.284-2.642 10.3-6.975 14.633-1.628 1.629-3.58 3.01-5.837 4.138-.072.027-.14.062-.207.103-2.06 1.007-4.372 1.805-6.922 2.39l-3.041-3.042 4.443-4.443a1.289 1.289 0 1 0-1.823-1.823l-4.443 4.443-3.041-3.041c.583-2.55 1.382-4.861 2.389-6.921.04-.067.076-.137.103-.209 1.128-2.256 2.51-4.208 4.137-5.836C26.492 3.265 37.797 2.6 41.42 2.578a42.663 42.663 0 0 1-.699 7.284Z"/><path d="M30.373 18.702c1.355 0 2.63-.529 3.589-1.487a5.081 5.081 0 0 0 0-7.178 5.042 5.042 0 0 0-3.59-1.486c-1.355 0-2.63.528-3.588 1.486a5.041 5.041 0 0 0-1.487 3.59c0 1.355.528 2.63 1.487 3.588a5.043 5.043 0 0 0 3.589 1.487Zm-1.766-6.842a2.481 2.481 0 0 1 1.766-.731c.667 0 1.294.26 1.766.731a2.5 2.5 0 0 1 0 3.532 2.482 2.482 0 0 1-1.766.731c-.668 0-1.295-.26-1.767-.731a2.48 2.48 0 0 1-.731-1.766c0-.667.26-1.294.732-1.766Z"/></g><defs><clipPath id="a"><path fill="#fff" d="M0 0h44v44H0z"/></clipPath></defs></svg>