<svg width="92" height="20" fill="none" xmlns="http://www.w3.org/2000/svg"><path d="m14.115 15.662-1.372-4.772 3.914-3.054-4.962-.17L10 2.999 8.305 7.666l-4.962.17 3.914 3.054-1.371 4.772L10 12.882l4.115 2.78Z" fill="#E7D431"/><path d="m14.115 15.662-1.372-4.772 3.914-3.054-4.962-.17L10 2.999 8.305 7.666l-4.962.17 3.914 3.054-1.371 4.772L10 12.882l4.115 2.78Z" fill="#E7D431"/><path d="m14.115 15.662-1.372-4.772 3.914-3.054-4.962-.17L10 2.999 8.305 7.666l-4.962.17 3.914 3.054-1.371 4.772L10 12.882l4.115 2.78Z" fill="#E7D431"/><path d="m14.115 15.662-1.372-4.772 3.914-3.054-4.962-.17L10 2.999 8.305 7.666l-4.962.17 3.914 3.054-1.371 4.772L10 12.882l4.115 2.78Zm35.999.001-1.571-4.837 4.114-2.989h-5.085L46 3l-1.572 4.837h-5.085l4.114 2.99-1.572 4.836L46 12.674l4.114 2.99Z" fill="#E7D431"/><path d="m50.114 15.663-1.571-4.837 4.114-2.989h-5.085L46 3l-1.572 4.837h-5.085l4.114 2.99-1.572 4.836L46 12.674l4.114 2.99Z" fill="#E7D431"/><path d="m50.114 15.663-1.571-4.837 4.114-2.989h-5.085L46 3l-1.572 4.837h-5.085l4.114 2.99-1.572 4.836L46 12.674l4.114 2.99Z" fill="#E7D431"/><path d="m50.114 15.663-1.571-4.837 4.114-2.989h-5.085L46 3l-1.572 4.837h-5.085l4.114 2.99-1.572 4.836L46 12.674l4.114 2.99Zm-18 0-1.571-4.837 4.114-2.989h-5.085L28 3l-1.572 4.837h-5.085l4.114 2.99-1.572 4.836L28 12.674l4.114 2.99Z" fill="#E7D431"/><path d="m32.114 15.663-1.571-4.837 4.114-2.989h-5.085L28 3l-1.572 4.837h-5.085l4.114 2.99-1.572 4.836L28 12.674l4.114 2.99Z" fill="#E7D431"/><path d="m32.114 15.663-1.571-4.837 4.114-2.989h-5.085L28 3l-1.572 4.837h-5.085l4.114 2.99-1.572 4.836L28 12.674l4.114 2.99Z" fill="#E7D431"/><path d="m32.114 15.663-1.571-4.837 4.114-2.989h-5.085L28 3l-1.572 4.837h-5.085l4.114 2.99-1.572 4.836L28 12.674l4.114 2.99Zm36.001 0-1.572-4.837 4.114-2.989h-5.085L64 3l-1.572 4.837h-5.085l4.114 2.99-1.572 4.836L64 12.674l4.115 2.99Z" fill="#E7D431"/><path d="m68.115 15.663-1.572-4.837 4.114-2.989h-5.085L64 3l-1.572 4.837h-5.085l4.114 2.99-1.572 4.836L64 12.674l4.115 2.99Z" fill="#E7D431"/><path d="m68.115 15.663-1.572-4.837 4.114-2.989h-5.085L64 3l-1.572 4.837h-5.085l4.114 2.99-1.572 4.836L64 12.674l4.115 2.99Z" fill="#E7D431"/><path d="m68.115 15.663-1.572-4.837 4.114-2.989h-5.085L64 3l-1.572 4.837h-5.085l4.114 2.99-1.572 4.836L64 12.674l4.115 2.99Zm18 0-1.572-4.837 4.114-2.989h-5.085L82 3l-1.572 4.837h-5.085l4.114 2.99-1.572 4.836L82 12.674l4.115 2.99Z" fill="#E7D431"/><path d="m86.115 15.663-1.572-4.837 4.114-2.989h-5.085L82 3l-1.572 4.837h-5.085l4.114 2.99-1.572 4.836L82 12.674l4.115 2.99Z" fill="#E7D431"/><path d="m86.115 15.663-1.572-4.837 4.114-2.989h-5.085L82 3l-1.572 4.837h-5.085l4.114 2.99-1.572 4.836L82 12.674l4.115 2.99Z" fill="#E7D431"/><path d="m86.115 15.663-1.572-4.837 4.114-2.989h-5.085L82 3l-1.572 4.837h-5.085l4.114 2.99-1.572 4.836L82 12.674l4.115 2.99Z" fill="#E7D431"/></svg>