<svg width="58" height="50" viewBox="0 0 58 50" fill="none" xmlns="http://www.w3.org/2000/svg">
<g clip-path="url(#clip0_1_999)" filter="url(#filter0_d_1_999)">
<path d="M20.0028 23.045C18.7714 22.6905 17.5399 22.5106 16.342 22.5106C14.4921 22.5106 12.9486 22.9333 11.7517 23.451C12.9056 19.2268 15.6775 11.9381 21.1992 11.1173C21.7105 11.0413 22.1296 10.6715 22.2691 10.1738L23.4759 5.85736C23.5777 5.49232 23.5174 5.10159 23.3091 4.7848C23.1009 4.46802 22.7663 4.25665 22.3913 4.20525C21.9838 4.14966 21.5684 4.12134 21.1567 4.12134C14.5289 4.12134 7.96502 11.0392 5.19526 20.9445C3.56938 26.7557 3.09263 35.4924 7.09754 40.9916C9.33863 44.0687 12.6082 45.7119 16.8156 45.876C16.8329 45.8766 16.8497 45.8771 16.867 45.8771C22.0583 45.8771 26.6616 42.3809 28.0619 37.3758C28.8985 34.3837 28.5203 31.2457 26.9962 28.5379C25.4883 25.8604 23.0049 23.9088 20.0028 23.045Z" fill="#F83E2A"/>
<path d="M52.4996 28.5384C50.9918 25.8604 48.5084 23.9088 45.5063 23.045C44.2748 22.6905 43.0433 22.5106 41.8459 22.5106C39.9961 22.5106 38.452 22.9333 37.2552 23.451C38.409 19.2268 41.1809 11.9381 46.7031 11.1173C47.2145 11.0413 47.633 10.6715 47.7731 10.1738L48.9799 5.85736C49.0816 5.49232 49.0213 5.10159 48.8131 4.7848C48.6054 4.46802 48.2708 4.25665 47.8953 4.20525C47.4883 4.14966 47.0729 4.12134 46.6606 4.12134C40.0328 4.12134 33.469 11.0392 30.6987 20.9445C29.0733 26.7557 28.5966 35.4924 32.602 40.9926C34.8426 44.0692 38.1127 45.7129 42.3195 45.8766C42.3368 45.8771 42.3536 45.8776 42.3715 45.8776C47.5622 45.8776 52.1661 42.3814 53.5664 37.3764C54.4019 34.3842 54.0232 31.2457 52.4996 28.5384Z" fill="#F83E2A"/>
</g>
<defs>
<filter id="filter0_d_1_999" x="0" y="-4" width="58" height="57.9995" filterUnits="userSpaceOnUse" color-interpolation-filters="sRGB">
<feFlood flood-opacity="0" result="BackgroundImageFix"/>
<feColorMatrix in="SourceAlpha" type="matrix" values="0 0 0 0 0 0 0 0 0 0 0 0 0 0 0 0 0 0 127 0" result="hardAlpha"/>
<feOffset/>
<feGaussianBlur stdDeviation="2"/>
<feComposite in2="hardAlpha" operator="out"/>
<feColorMatrix type="matrix" values="0 0 0 0 0 0 0 0 0 0 0 0 0 0 0 0 0 0 0.25 0"/>
<feBlend mode="normal" in2="BackgroundImageFix" result="effect1_dropShadow_1_999"/>
<feBlend mode="normal" in="SourceGraphic" in2="effect1_dropShadow_1_999" result="shape"/>
</filter>
<clipPath id="clip0_1_999">
<rect width="50" height="49.9995" fill="white" transform="translate(4)"/>
</clipPath>
</defs>
</svg>
