<svg xmlns="http://www.w3.org/2000/svg" width="11" height="11" fill="none"><path fill="#BDBDBD" d="M9.71.86h-.515V0h-.86v.86h-5.67V0h-.86v.86h-.516A1.29 1.29 0 0 0 0 2.147V9.71C0 10.42.578 11 1.29 11h8.42A1.29 1.29 0 0 0 11 9.71V2.149A1.29 1.29 0 0 0 9.71.86Zm.43 8.85a.43.43 0 0 1-.43.43H1.29a.43.43 0 0 1-.43-.43V4.04h9.28v5.67Zm0-6.53H.86V2.148a.43.43 0 0 1 .43-.43h.515v.86h.86v-.86h5.67v.86h.86v-.86h.516a.43.43 0 0 1 .43.43V3.18Z"/><path fill="#BDBDBD" d="M2.492 4.941h-.86v.86h.86v-.86Zm1.718 0h-.858v.86h.859v-.86Zm1.72 0h-.86v.86h.86v-.86Zm1.718 0H6.79v.86h.86v-.86Zm1.719 0h-.86v.86h.86v-.86ZM2.492 6.66h-.86v.86h.86v-.86Zm1.718 0h-.858v.86h.859v-.86Zm1.72 0h-.86v.86h.86v-.86Zm1.718 0H6.79v.86h.86v-.86ZM2.492 8.379h-.86v.86h.86v-.86Zm1.718 0h-.858v.86h.859v-.86Zm1.72 0h-.86v.86h.86v-.86Zm1.718 0H6.79v.86h.86v-.86ZM9.367 6.66h-.86v.86h.86v-.86Z"/></svg>