<svg xmlns="http://www.w3.org/2000/svg" width="11" height="11" fill="none"><g fill="#BDBDBD" clip-path="url(#a)"><path d="M10.904 3.199 7.924.105a.344.344 0 0 0-.59.239v1.49h-.115A4.474 4.474 0 0 0 2.75 6.301v.688a.34.34 0 0 0 .343.337c.13 0 .254-.076.314-.195a3.76 3.76 0 0 1 3.382-2.09h.544v1.49a.343.343 0 0 0 .591.238l2.98-3.094a.344.344 0 0 0 0-.477Z"/><path d="M9.625 11h-8.25A1.377 1.377 0 0 1 0 9.625V3.208c0-.758.617-1.375 1.375-1.375H2.75a.458.458 0 1 1 0 .917H1.375a.459.459 0 0 0-.458.458v6.417c0 .253.205.458.458.458h8.25a.459.459 0 0 0 .458-.458V5.958a.458.458 0 1 1 .917 0v3.667C11 10.383 10.383 11 9.625 11Z"/></g><defs><clipPath id="a"><path fill="#fff" d="M0 0h11v11H0z"/></clipPath></defs></svg>